<svg width="41" height="41" viewBox="0 0 41 41" fill="none" xmlns="http://www.w3.org/2000/svg">
<g clip-path="url(#clip0_169_15)">
<path d="M34.3201 0.953125H5.96036C2.72049 0.953125 0.0847168 3.5816 0.0847168 6.8125V35.0938C0.0847168 38.3246 2.72049 40.9531 5.96036 40.9531H34.3201C37.56 40.9531 40.1958 38.3246 40.1958 35.0938V6.8125C40.1958 3.5816 37.56 0.953125 34.3201 0.953125ZM37.8455 35.0938C37.8455 37.0322 36.264 38.6094 34.3201 38.6094H5.96036C4.0165 38.6094 2.43497 37.0322 2.43497 35.0938V6.8125C2.43497 4.87402 4.0165 3.29688 5.96036 3.29688H34.3201C36.264 3.29688 37.8455 4.87402 37.8455 6.8125V35.0938Z" fill="#070707" stroke="#070707" stroke-width="0.5"/>
<path d="M18.9651 17.4375C18.9651 14.8527 16.8566 12.75 14.2646 12.75H7.21387V29.1562H14.2646C16.8566 29.1562 18.9651 27.0536 18.9651 24.4688C18.9651 23.0698 18.3467 21.8128 17.3686 20.9531C18.3467 20.0934 18.9651 18.8364 18.9651 17.4375ZM16.6149 24.4688C16.6149 25.7612 15.5606 26.8125 14.2646 26.8125H9.56412V22.125H14.2646C15.5606 22.125 16.6149 23.1763 16.6149 24.4688ZM9.56412 19.7812V15.0938H14.2646C15.5606 15.0938 16.6149 16.1451 16.6149 17.4375C16.6149 18.7299 15.5606 19.7812 14.2646 19.7812H9.56412Z" fill="#070707" stroke="#070707" stroke-width="0.5"/>
<path d="M27.1911 17.4375C23.9512 17.4375 21.3154 20.066 21.3154 23.2969C21.3154 26.5278 23.9512 29.1562 27.1911 29.1562C29.2821 29.1562 31.2321 28.0341 32.2799 26.2275L30.2455 25.0538C29.6163 26.1387 28.4458 26.8125 27.1911 26.8125C25.6588 26.8125 24.3521 25.8329 23.867 24.4688H33.0667V23.2969C33.0667 20.066 30.4309 17.4375 27.1911 17.4375ZM23.867 22.125C24.3521 20.7609 25.6588 19.7812 27.1911 19.7812C28.7233 19.7812 30.03 20.7609 30.5151 22.125H23.867Z" fill="#070707" stroke="#070707" stroke-width="0.5"/>
<path d="M22.4905 12.75H31.8915V15.0938H22.4905V12.75Z" fill="#070707" stroke="#070707" stroke-width="0.5"/>
</g>
<defs>
<clipPath id="clip0_169_15">
<rect width="40.111" height="40" fill="white" transform="translate(0.0847168 0.953125)"/>
</clipPath>
</defs>
</svg>
